<svg width="1440" height="846" viewBox="0 0 1440 846" fill="none" xmlns="http://www.w3.org/2000/svg">
<rect width="120.652" height="28.8441" transform="matrix(0.911346 -0.411641 0.376001 0.926619 1267.73 49.665)" fill="#7F8CFF"/>
<path d="M1430.74 85.6413C1425.19 75.2541 1417.4 66.391 1408.01 59.7694C1398.61 53.1479 1387.87 48.9541 1376.65 47.5276C1365.43 46.1011 1354.05 47.4821 1343.43 51.5586C1332.81 55.6352 1323.25 62.2928 1315.53 70.9923C1307.8 79.6918 1302.12 90.1888 1298.96 101.633C1295.79 113.078 1295.22 125.148 1297.3 136.867C1299.38 148.585 1304.04 159.623 1310.92 169.087C1317.79 178.55 1326.68 186.172 1336.86 191.337L1350.28 161.892C1344.47 158.949 1339.41 154.607 1335.49 149.215C1331.58 143.824 1328.92 137.536 1327.74 130.86C1326.55 124.184 1326.88 117.307 1328.68 110.787C1330.49 104.267 1333.72 98.2873 1338.12 93.3312C1342.52 88.3751 1347.97 84.5823 1354.02 82.2599C1360.07 79.9375 1366.55 79.1507 1372.94 79.9634C1379.33 80.7761 1385.45 83.1653 1390.81 86.9375C1396.16 90.7098 1400.6 95.7592 1403.76 101.677L1430.74 85.6413Z" fill="white"/>
<ellipse cx="455.39" cy="56.9877" rx="15.062" ry="15.8912" fill="#7F8CFF"/>
<rect width="133.756" height="24.2954" transform="matrix(0.785621 0.618708 0.577563 -0.816346 9.50684 325.498)" fill="#7F8CFF"/>
<ellipse cx="27.6248" cy="27.4226" rx="27.6248" ry="27.4226" transform="matrix(0.636645 0.771157 -0.736308 0.676647 40.3828 346.172)" fill="white"/>
<rect width="62.5976" height="11.6119" transform="matrix(0.907416 -0.420234 0.384124 0.923282 291.939 805.461)" fill="white"/>
<path d="M324.439 804.679C322.047 810.59 321.979 817.262 324.249 823.226C326.52 829.191 330.943 833.96 336.546 836.484C342.148 839.008 348.472 839.08 354.126 836.684C359.779 834.289 364.299 829.623 366.691 823.711L324.439 804.679Z" fill="#7F8CFF"/>
<ellipse cx="1217.42" cy="564.33" rx="41.839" ry="44.1423" fill="#7F8CFF"/>
</svg>
