<svg width="1439" height="722" viewBox="0 0 1439 722" fill="none" xmlns="http://www.w3.org/2000/svg">
<path d="M1424.15 130.028C1415.26 114.705 1402.78 101.631 1387.72 91.863C1372.66 82.0953 1355.45 75.9088 1337.47 73.8046C1319.49 71.7003 1301.25 73.7374 1284.23 79.751C1267.21 85.7645 1251.89 95.5853 1239.51 108.418C1227.12 121.251 1218.03 136.736 1212.95 153.618C1207.88 170.5 1206.97 188.306 1210.3 205.593C1213.63 222.88 1221.1 239.162 1232.12 253.122C1243.13 267.081 1257.38 278.326 1273.7 285.945L1295.2 242.508C1285.9 238.168 1277.79 231.762 1271.51 223.809C1265.24 215.856 1260.98 206.58 1259.08 196.732C1257.18 186.883 1257.7 176.74 1260.59 167.122C1263.48 157.504 1268.67 148.683 1275.72 141.372C1282.77 134.061 1291.5 128.466 1301.2 125.04C1310.89 121.614 1321.28 120.453 1331.53 121.652C1341.77 122.851 1351.58 126.375 1360.16 131.94C1368.74 137.505 1375.85 144.953 1380.91 153.682L1424.15 130.028Z" fill="#6070FF"/>
<path d="M252.945 705.783C255.337 703.017 257.024 699.743 257.87 696.226C258.716 692.709 258.697 689.048 257.815 685.539C256.933 682.031 255.213 678.773 252.794 676.031C250.374 673.288 247.323 671.137 243.889 669.752C240.454 668.367 236.732 667.787 233.023 668.059C229.315 668.331 225.724 669.447 222.542 671.317C219.361 673.187 216.677 675.758 214.709 678.823C212.741 681.887 211.544 685.358 211.214 688.956L221.366 689.833C221.554 687.783 222.236 685.805 223.357 684.06C224.478 682.314 226.007 680.849 227.819 679.784C229.632 678.718 231.678 678.082 233.79 677.928C235.903 677.773 238.024 678.103 239.98 678.892C241.937 679.681 243.675 680.907 245.053 682.469C246.432 684.032 247.412 685.887 247.914 687.886C248.417 689.885 248.427 691.971 247.945 693.974C247.463 695.978 246.502 697.843 245.14 699.419L252.945 705.783Z" fill="#EBEBFF"/>
<rect width="208.572" height="47.3537" transform="matrix(0.872261 -0.489041 0.51104 0.859557 1144.49 102)" fill="#EBEBFF"/>
<rect width="165.468" height="29.0116" transform="matrix(0.922304 0.386466 -0.406061 0.913846 717.583 631)" fill="#EBEBFF"/>
<rect width="57.6064" height="10.0339" transform="matrix(0.978648 -0.205545 -0.217395 -0.976084 678.261 142.572)" fill="#6070FF"/>
<rect width="110.234" height="19.7434" transform="matrix(0.703377 -0.710817 0.731124 0.682245 0 99.9232)" fill="#EBEBFF"/>
<ellipse cx="852.545" cy="662.5" rx="24.1996" ry="23.5" fill="#6070FF"/>
<ellipse cx="705.288" cy="149.5" rx="11.8424" ry="11.5" fill="#EBEBFF"/>
<path d="M1250.05 562.5C1250.05 582.921 1233 599.5 1211.94 599.5C1190.87 599.5 1173.82 582.921 1173.82 562.5C1173.82 542.079 1190.87 525.5 1211.94 525.5C1233 525.5 1250.05 542.079 1250.05 562.5Z" fill="white" stroke="#EBEBFF"/>
<path d="M997.758 53.5C997.758 43.0203 989.006 34.5 978.178 34.5C967.35 34.5 958.597 43.0203 958.597 53.5C958.597 63.9797 967.35 72.5 978.178 72.5C989.006 72.5 997.758 63.9797 997.758 53.5Z" fill="white" stroke="#EBEBFF"/>
<path d="M369.598 53.5C369.598 57.3523 366.378 60.5 362.375 60.5C358.371 60.5 355.151 57.3523 355.151 53.5C355.151 49.6477 358.371 46.5 362.375 46.5C366.378 46.5 369.598 49.6477 369.598 53.5Z" fill="white" stroke="#EBEBFF"/>
<path d="M62.7262 404.5C62.7262 398.439 57.662 393.5 51.3839 393.5C45.1057 393.5 40.0415 398.439 40.0415 404.5C40.0415 410.561 45.1057 415.5 51.3839 415.5C57.662 415.5 62.7262 410.561 62.7262 404.5Z" fill="white" stroke="#EBEBFF"/>
<path d="M47.7633 73.0741C43.4479 82.8892 43.3244 93.967 47.4199 103.87C51.5155 113.774 59.4945 121.692 69.6018 125.883C79.7091 130.073 91.1167 130.193 101.315 126.216C111.513 122.239 119.667 114.49 123.982 104.675L47.7633 73.0741Z" fill="#6070FF"/>
<path d="M227.12 650C226.776 654.881 228.442 659.695 231.753 663.383C235.064 667.071 239.748 669.331 244.774 669.666C249.801 670 254.758 668.381 258.556 665.166C262.354 661.951 264.681 657.403 265.025 652.521L227.12 650Z" fill="#6070FF"/>
</svg>
